<svg width="1400" height="1400" viewBox="0 0 1400 1400" fill="none" xmlns="http://www.w3.org/2000/svg">
<rect width="1400" height="1400" rx="80" fill="#EFE4D9"/>
<g clip-path="url(#clip0_1_80)">
<rect x="420" y="420" width="280" height="280" fill="#FE7F66"/>
<rect x="140" y="140" width="280" height="280" fill="#9BC3B9"/>
<rect x="140" y="980" width="280" height="280" fill="#FBB349"/>
<rect x="980" y="140" width="280" height="280" fill="#6D8498"/>
<rect x="980" y="980" width="280" height="280" fill="#FE7F66"/>
<rect x="700" y="420" width="280" height="280" fill="#352D42"/>
<rect x="700" y="700" width="280" height="280" fill="#9BC3B9"/>
<rect x="980" y="700" width="175" height="280" fill="#FDC3A6"/>
<rect x="980" y="420" width="175" height="280" fill="#FEDFBF"/>
<rect x="245" y="700" width="175" height="280" fill="#F78A96"/>
<rect x="245" y="420" width="175" height="280" fill="#FEDFBF"/>
<rect x="700" y="245" width="280" height="175" fill="#F78A96"/>
<rect x="700" y="980" width="280" height="175" fill="#D9D9D9"/>
<rect x="420" y="245" width="280" height="175" fill="#FEDFBF"/>
<rect x="420" y="980" width="280" height="175" fill="#FEDFBF"/>
<rect x="1155" y="700" width="105" height="280" fill="#FE8C2E"/>
<rect x="140" y="700" width="105" height="280" fill="#9BC3B9"/>
<rect x="1155" y="420" width="105" height="280" fill="#9BC3B9"/>
<rect x="140" y="420" width="105" height="280" fill="#FE8C2E"/>
<rect x="700" y="140" width="280" height="105" fill="#FB5161"/>
<rect x="700" y="1155" width="280" height="105" fill="#9BC3B9"/>
<rect x="420" y="140" width="280" height="105" fill="#FE8C2E"/>
<rect x="420" y="1155" width="280" height="105" fill="#FB5161"/>
<rect x="420" y="700" width="280" height="280" fill="#352D42"/>
</g>
<rect x="156" y="156" width="1088" height="1088" rx="64" stroke="black" stroke-opacity="0.2" stroke-width="32"/>
<defs>
<clipPath id="clip0_1_80">
<rect x="140" y="140" width="1120" height="1120" rx="80" fill="white"/>
</clipPath>
</defs>
</svg>
